<svg width="47" height="44" viewBox="0 0 47 44" fill="none" xmlns="http://www.w3.org/2000/svg">
<path d="M45.1924 0.677678C44.9552 0.711774 44.7368 0.82676 44.5747 1.00268C38.9376 6.90022 25.8008 20.9902 19.7772 27.311L11.7008 20.1773H11.7011C11.4944 19.993 11.2227 19.8987 10.9463 19.9151C10.6699 19.9314 10.4113 20.0572 10.2277 20.2644C10.0442 20.4718 9.95061 20.7435 9.96802 21.0199C9.98507 21.2963 10.1117 21.5546 10.3199 21.7374L19.1598 29.5374C19.5802 29.9099 20.2204 29.8812 20.6059 29.4724C26.399 23.4117 40.3232 8.46167 46.0859 2.43245H46.0863C46.3968 2.11326 46.4697 1.63156 46.2677 1.23478C46.0656 0.837966 45.6333 0.6138 45.1926 0.677277L45.1924 0.677678ZM21.6466 1.73393C19.0891 1.70418 16.5195 2.15142 14.0577 3.08249C3.3271 7.14137 -2.09111 19.1644 1.96767 29.895C6.02655 40.6256 18.0496 46.0438 28.7802 41.985C39.5108 37.9261 44.9123 25.9031 40.8535 15.1725V15.1729C40.7711 14.8939 40.576 14.6621 40.3152 14.5337C40.0544 14.4053 39.7519 14.3919 39.4809 14.4967C39.2096 14.6016 38.9949 14.8152 38.8882 15.0854C38.7816 15.356 38.7928 15.6585 38.9198 15.9204C42.5812 25.5998 37.7115 36.3741 28.0323 40.0354C18.3529 43.6968 7.56192 38.8272 3.90057 29.1479C0.239207 19.4685 5.10882 8.69428 14.7881 5.03292C20.698 2.79748 27.3303 3.68176 32.4356 7.40552V7.40515C32.8977 7.70295 33.5118 7.59014 33.8379 7.14762C34.1644 6.70547 34.0911 6.08552 33.6703 5.73155C30.1265 3.14678 25.9077 1.78327 21.6453 1.73396L21.6466 1.73393Z" fill="#ffd700"/>
</svg>
