<svg width="45" height="52" viewBox="0 0 45 52" fill="#FFD700" xmlns="http://www.w3.org/2000/svg">
<path d="M22.5 8.11531C21.8696 8.11531 21.2396 8.11531 20.6092 8.19402C19.7426 3.54569 15.7244 0.00012207 10.8397 0.00012207C5.40318 0.00012207 0.991261 4.41232 0.991261 9.92748C0.991261 12.3701 2.01557 15.6001 3.35475 18.9093C1.4639 22.0607 0.203369 25.9215 0.203369 30.0967C0.203369 42.1514 10.2097 51.9998 22.5002 51.9998C34.7908 51.9998 44.7971 42.1514 44.7971 30.0178C44.7971 18.2778 35.1845 8.11463 22.5002 8.11463L22.5 8.11531ZM41.2516 38.6059H30.0642C30.4581 36.1633 30.6155 33.5633 30.6946 30.8059H43.2219C43.0642 33.6424 42.4341 36.2424 41.252 38.6059H41.2516ZM22.5 50.4238C20.2153 50.4238 18.0092 46.3269 16.8274 40.1817H28.2516C26.9908 46.3273 24.7847 50.4238 22.4999 50.4238H22.5ZM16.5122 38.6059C16.3548 37.4241 16.197 36.1633 16.0396 34.8241C17.9305 34.0362 19.1123 32.7755 19.1123 31.3575C19.1123 31.2001 19.1123 30.9636 19.0335 30.8062H29.0398C29.0398 33.4849 28.8033 36.1636 28.4094 38.6062L16.5122 38.6059ZM1.7786 30.8059H2.56643C1.7786 34.1937 7.05728 35.7694 10.8391 35.7694C12.1786 35.7694 13.4391 35.6119 14.5421 35.3754C14.6208 36.4785 14.7786 37.5815 14.936 38.6059H3.74862C2.56655 36.2424 1.93642 33.6424 1.77865 30.8059L1.7786 30.8059ZM10.209 31.9877C10.3664 32.2242 10.6029 32.3816 10.8394 32.3816C11.0759 32.3816 11.3908 32.2242 11.4698 31.9877C11.5485 31.8302 12.3364 30.6481 13.282 28.8363C16.0394 29.3089 17.5364 30.4906 17.5364 31.4363C17.5364 32.7758 14.6211 34.2728 10.7607 34.2728C6.90024 34.2728 3.98499 32.7758 3.98499 31.4363C3.98499 30.4906 5.48194 29.3877 8.16069 28.8363C9.34248 30.6485 10.0512 31.8302 10.209 31.9877H10.209ZM20.6879 10.5572C21.3183 10.0058 21.8697 9.69063 22.5001 9.69063C24.7849 9.69063 26.991 13.7876 28.1728 19.9328H17.8517C19.349 16.545 20.5308 13.0781 20.6882 10.557L20.6879 10.5572ZM17.1426 21.5087H28.4879C28.8818 23.9513 29.1183 26.5513 29.1183 29.3087H18.1658C17.2993 28.4422 15.8811 27.8118 14.1476 27.4179C15.0933 25.6844 16.1176 23.6361 17.1419 21.5087H17.1426ZM30.6942 29.23C30.6942 26.5513 30.4577 23.8726 30.0638 21.43H41.2512C42.433 23.8726 43.0634 26.4726 43.1421 29.23H30.6942ZM40.4637 19.9331H29.8279C28.9613 15.3636 27.6218 11.9758 25.9674 10.0058C32.034 10.9511 37.3127 14.5754 40.4643 19.9331H40.4637ZM10.8395 1.57529C15.4091 1.57529 19.1909 5.27834 19.1909 9.92695C19.1909 15.2843 12.9666 26.4722 10.8395 30.0964C8.16039 25.4481 2.56649 15.2059 2.56649 9.92695C2.56649 5.27834 6.26954 1.57529 10.8395 1.57529ZM7.53035 27.3394C5.7969 27.7333 4.37897 28.3637 3.5908 29.2303H1.7786C1.93602 26.0789 2.72425 23.3211 4.06335 20.6425C5.24542 23.0847 6.42721 25.4486 7.53026 27.3394H7.53035ZM4.53645 40.1816H15.1732C16.0398 44.7512 17.3793 48.2181 19.0337 50.1089C12.888 49.0846 7.60947 45.3816 4.53682 40.1816H4.53645ZM25.888 50.1089C27.5424 48.1393 28.8819 44.7515 29.7485 40.1816H40.3852C37.3913 45.3816 32.1126 49.0846 25.8884 50.1089H25.888Z" fill="#FFD700"/>
<path d="M10.84 15.9148C14.3066 15.9148 17.0643 13.0783 17.0643 9.69049C17.0643 6.22395 14.2278 3.46619 10.84 3.46619C7.37349 3.46619 4.61572 6.30269 4.61572 9.69049C4.61572 13.157 7.37311 15.9148 10.84 15.9148ZM10.84 5.04216C13.44 5.04216 15.4886 7.16951 15.4886 9.69077C15.4886 12.2908 13.3613 14.3394 10.84 14.3394C8.31877 14.3394 6.19141 12.212 6.19141 9.69077C6.19141 7.0904 8.24003 5.04216 10.84 5.04216Z" fill="#FFD700"/>
</svg>
