<svg width="48" height="22" viewBox="0 0 48 22" fill="#ffd700" xmlns="http://www.w3.org/2000/svg">
<path d="M36.8336 0.166382C30.8458 0.166382 27.1979 4.55063 23.8336 9.15356C20.4694 4.55063 16.8214 0.166382 10.8336 0.166382C6.96336 0.166382 3.38696 2.23134 1.45136 5.5833C-0.483786 8.93488 -0.483786 13.0648 1.45136 16.416C3.3865 19.768 6.96289 21.8329 10.8336 21.8329C16.8214 21.8329 20.4694 17.4487 23.8336 12.8457C27.1979 17.4487 30.8458 21.8329 36.8336 21.8329C40.7039 21.8329 44.2803 19.768 46.2159 16.416C48.1511 13.0644 48.1511 8.93451 46.2159 5.5833C44.2808 2.23134 40.7044 0.166382 36.8336 0.166382ZM10.8336 19.6664C7.73741 19.6664 4.8763 18.0145 3.32819 15.3333C1.78007 12.6517 1.78007 9.348 3.32819 6.66638C4.8763 3.98513 7.73741 2.3333 10.8336 2.3333C15.9985 2.3333 19.2071 6.45931 22.4965 10.9998C19.2073 15.5404 15.9986 19.6664 10.8336 19.6664ZM36.8336 19.6664C31.6688 19.6664 28.4602 15.5404 25.1708 10.9998C28.46 6.45931 31.6687 2.3333 36.8336 2.3333C39.9299 2.3333 42.791 3.98513 44.3391 6.66638C45.8872 9.348 45.8872 12.6517 44.3391 15.3333C42.791 18.0145 39.9299 19.6664 36.8336 19.6664Z" fill="#ffd700"/>
</svg>
