<svg width="33" height="52" viewBox="0 0 33 52" fill="none" xmlns="http://www.w3.org/2000/svg">
<path d="M29.0832 25.4575V12.4462C29.0832 5.68348 23.4335 0.119629 16.5 0.119629C9.56657 0.119629 3.91682 5.68332 3.91682 12.4462V25.4575C1.60547 28.197 0.236328 31.7062 0.236328 35.558C0.236328 44.3748 7.51202 51.4796 16.5003 51.4796C25.4886 51.4796 32.7643 44.3748 32.7643 35.558C32.7643 31.7062 31.3952 28.1964 29.0838 25.4575H29.0832ZM5.97122 12.4462C5.97122 6.79643 10.6794 2.17433 16.4999 2.17433C22.3204 2.17433 27.0285 6.79643 27.0285 12.4462V23.403C24.2037 21.0916 20.5231 19.6364 16.4999 19.6364C12.4767 19.6364 8.88146 21.0916 5.97122 23.403V12.4462ZM16.4999 49.4254C8.71011 49.4254 2.37618 43.1767 2.37618 35.5583C2.37618 27.9399 8.71026 21.6913 16.4999 21.6913C24.2895 21.6913 30.6235 27.9399 30.6235 35.5583C30.6235 43.1767 24.2895 49.4254 16.4999 49.4254ZM16.4999 31.4494C14.1885 31.4494 12.3053 33.3326 12.3053 35.558C12.3053 37.4412 13.675 39.0678 15.4724 39.4959V43.7759C15.4724 44.3754 15.9005 44.803 16.4994 44.803C17.0989 44.803 17.5264 44.3748 17.5264 43.7759V39.4959C19.3243 39.0678 20.6934 37.4414 20.6934 35.558C20.6946 33.3326 18.8115 31.4494 16.5 31.4494H16.4999ZM16.4999 37.6126C15.3015 37.6126 14.3599 36.671 14.3599 35.558C14.3599 34.4451 15.3015 33.5035 16.4999 33.5035C17.6982 33.5035 18.6399 34.4451 18.6399 35.558C18.6399 36.671 17.6982 37.6126 16.4999 37.6126Z" fill=" #ffd700"/>
</svg>
