<svg width="220" height="60" viewBox="0 0 180 36" fill="none" xmlns="http://www.w3.org/2000/svg"><path d="M18.053 13.163c0 2.626-2.145 4.754-4.79 4.754s-4.79-2.128-4.79-4.754c0-2.625 2.145-4.753 4.79-4.753s4.79 2.128 4.79 4.753z" fill=" #FFD700"/><path fill-rule="evenodd" clip-rule="evenodd" d="M0 13.163C0 5.887 5.932 0 13.263 0c7.332 0 13.263 5.887 13.263 13.163 0 2.596-.773 5.046-2.1 7.094C20.982 25.508 14 36 13.263 36 12.526 36 5.39 25.616 2.1 20.257A13.045 13.045 0 010 13.163zm11.421 17.061c0 1.024.81 1.829 1.842 1.829a1.817 1.817 0 001.842-1.829c0-1.023-.81-1.828-1.842-1.828a1.817 1.817 0 00-1.842 1.828zm1.842-3.72c2.063 0 4.127-.548 5.895-1.536.7-.402.958-1.28.479-1.974-.369-.695-1.29-.95-1.99-.549a9.24 9.24 0 01-4.42 1.134c-1.548 0-3.059-.366-4.422-1.134-.7-.402-1.584-.146-1.99.549-.404.695-.147 1.572.553 1.974a11.914 11.914 0 005.895 1.536zm-7.737-13.34c0 4.24 3.463 7.678 7.737 7.678S21 17.405 21 13.163c0-4.241-3.463-7.678-7.737-7.678s-7.737 3.437-7.737 7.678zM17.98 4.972c0 1.024.81 1.828 1.842 1.828a1.817 1.817 0 001.842-1.828c0-1.024-.81-1.828-1.842-1.828a1.817 1.817 0 00-1.842 1.828z" fill="#FFD700"/></svg>