<svg width="49" height="52" viewBox="0 0 49 52" fill="none" xmlns="http://www.w3.org/2000/svg">
<path d="M48.0895 50.1559L40.2108 28.0958C40.098 27.7839 39.802 27.576 39.4701 27.5757H26.5565L28.8257 20.3194C31.6629 18.9947 33.7384 16.4447 34.4595 13.3975C35.1807 10.3503 34.4682 7.14051 32.5255 4.68453C30.5831 2.22892 27.6237 0.796509 24.4922 0.796509C21.3608 0.796509 18.4017 2.22892 16.459 4.68453C14.5166 7.14051 13.8042 10.3503 14.5253 13.3975C15.2465 16.4447 17.3215 18.9947 20.1592 20.3194L22.4439 27.5757H9.53026C9.19837 27.576 8.90239 27.7839 8.78958 28.0958L0.910833 50.1559C0.821603 50.3986 0.856788 50.6695 1.00514 50.881C1.15386 51.0895 1.39506 51.2132 1.65115 51.2118H47.348C47.6041 51.2132 47.8453 51.0895 47.994 50.881C48.1424 50.6695 48.1775 50.3986 48.0883 50.1559H48.0895ZM21.577 19.5075C21.5066 19.2862 21.3423 19.1077 21.1279 19.0189C18.6523 17.9731 16.8021 15.8385 16.1184 13.2396C15.435 10.6404 15.9958 7.87166 17.6368 5.74328C19.2777 3.61518 21.8128 2.36848 24.5002 2.36848C27.1876 2.36848 29.7227 3.61518 31.3636 5.74328C33.0046 7.87175 33.5654 10.6404 32.882 13.2396C32.1983 15.8385 30.3481 17.9732 27.8725 19.0189C27.6581 19.1077 27.4938 19.2862 27.4234 19.5075L24.9022 27.5752H24.1143L21.577 19.5075ZM23.7515 31.7507C23.8578 32.0742 24.1599 32.2926 24.5001 32.2926C24.8404 32.2926 25.1425 32.0742 25.2488 31.7507L26.0758 29.1507H38.9179L40.1784 32.6648L33.8753 38.9678L16.9438 31.5145L12.2164 29.4423L11.5548 29.1507H22.9242L23.7515 31.7507ZM9.75141 30.0807L33.7271 40.6302C33.8272 40.6709 33.9339 40.6923 34.042 40.6934C34.2516 40.6944 34.4529 40.6125 34.6016 40.4648L40.7549 34.3036L41.9287 37.5891L29.8824 49.6355H25.4227L31.0166 44.0496V44.0492C31.1987 43.865 31.2781 43.6027 31.2295 43.3481C31.1813 43.0927 31.0104 42.8776 30.7725 42.7728L16.9377 36.6907C16.6947 36.5847 16.415 36.6076 16.193 36.752C15.9711 36.8963 15.8361 37.1426 15.8347 37.4074V49.6358H12.683V35.3274C12.6841 35.0129 12.4984 34.7282 12.2104 34.6027L8.68869 33.027L9.75141 30.0807ZM23.2008 49.6355H17.41V38.605L29.0868 43.7419L23.2008 49.6355ZM8.15984 34.5481L11.1066 35.8401V49.6359H2.77078L8.15984 34.5481ZM32.104 49.6355L42.5123 39.2272L46.231 49.6355H32.104Z" fill="#589991"/>
<path d="M30.8034 11.0306C30.8034 9.35879 30.1392 7.75552 28.9571 6.57345C27.7753 5.39165 26.1721 4.72754 24.5003 4.72754C22.8285 4.72754 21.2252 5.39168 20.0435 6.57345C18.8615 7.75552 18.1973 9.35879 18.1973 11.0306C18.1973 12.702 18.8614 14.3053 20.0435 15.4874C21.2253 16.6694 22.8285 17.3336 24.5003 17.3336C26.1721 17.3336 27.7754 16.6695 28.9571 15.4874C30.1392 14.3053 30.8034 12.702 30.8034 11.0306ZM19.7729 11.0306C19.7729 9.77665 20.2709 8.57424 21.1574 7.68773C22.0442 6.80123 23.2467 6.30323 24.5002 6.30323C25.7538 6.30323 26.9562 6.80125 27.8431 7.68773C28.7296 8.57423 29.2276 9.77665 29.2276 11.0306C29.2276 12.2842 28.7296 13.4866 27.8431 14.3731C26.9562 15.2596 25.7538 15.7576 24.5002 15.7576C23.2467 15.7576 22.0442 15.2596 21.1574 14.3731C20.2709 13.4866 19.7729 12.2842 19.7729 11.0306Z" fill="#589991"/>
</svg>
