<svg width="32" height="51" viewBox="0 0 32 51" fill="none" xmlns="http://www.w3.org/2000/svg">
<path d="M4.74861 0.402832H27.2954C29.8698 0.402832 32.0001 2.53319 32.0001 5.01863V46.3843C32.0001 48.9586 29.8698 51 27.2954 51H4.74861C2.26317 51 0.132812 48.9582 0.132812 46.3843V5.01863C0.132812 2.53319 2.26317 0.402832 4.74861 0.402832V0.402832ZM1.90808 40.7926H30.2249V9.7237H1.90808V40.7926ZM30.2249 42.5679H1.90808V46.385C1.90808 47.9828 3.23971 49.2255 4.74861 49.2255H27.2954C28.8932 49.2255 30.2249 47.9828 30.2249 46.385V42.5679ZM1.90808 7.94807H30.2249V5.01863C30.2249 3.50946 28.8932 2.1781 27.2954 2.1781H4.74861C3.23944 2.1781 1.90808 3.50973 1.90808 5.01863V7.94807Z" fill="#ffd700"/>
</svg>
