<svg width="31" height="52" viewBox="0 0 31 52" fill="none" xmlns="http://www.w3.org/2000/svg">
<path fill-rule="evenodd" clip-rule="evenodd" d="M30.4696 46.4899C30.4696 49.5364 28.0049 52 24.9503 52H6.04927C3.00309 52 0.530029 49.5306 0.530029 46.491V5.5094C0.530029 2.46322 2.99474 0.000366211 6.04927 0.000366211H24.9503C27.9958 0.000366211 30.4696 2.47232 30.4696 5.51051V46.4899ZM28.8939 11.0305V5.51023C28.8939 3.34257 27.1256 1.57578 24.9503 1.57578H6.04927C3.86499 1.57578 2.10572 3.33357 2.10572 5.50912V11.0305H28.8939ZM2.10647 46.4908C2.10647 48.6598 3.87326 50.4241 6.05002 50.4241H24.9511C27.1354 50.4241 28.8946 48.6656 28.8946 46.4897V40.9694H2.10721L2.10647 46.4908ZM2.10647 39.3937H28.8939V12.6063H2.10647V39.3937ZM13.137 7.09057C12.7017 7.09057 12.3491 6.738 12.3491 6.30273C12.3491 5.86746 12.7017 5.51489 13.137 5.51489H17.864C18.2992 5.51489 18.6518 5.86746 18.6518 6.30273C18.6518 6.738 18.2992 7.09057 17.864 7.09057H13.137ZM15.5005 47.2727C14.6303 47.2727 13.9248 46.5672 13.9248 45.697C13.9248 44.8268 14.6303 44.1213 15.5005 44.1213C16.3707 44.1213 17.0762 44.8268 17.0762 45.697C17.0762 46.5672 16.3707 47.2727 15.5005 47.2727ZM13.9248 29.6131L22.0342 21.5033C22.3418 21.1957 22.8409 21.1957 23.1485 21.5033C23.456 21.8113 23.456 22.31 23.1485 22.6176L14.4819 31.2845C14.174 31.5921 13.6752 31.5921 13.3676 31.2845L8.64027 26.5571C8.33268 26.2496 8.33268 25.7505 8.64027 25.4429C8.94786 25.1353 9.44696 25.1353 9.75455 25.4429L13.9248 29.6131Z" fill=" #ffd700"/>
</svg>
